<svg width="4" height="4" viewBox="0 0 4 4" fill="none" xmlns="http://www.w3.org/2000/svg">
<g id="Thumb up" clip-path="url(#clip0_1_7452)">
<path id="Vector" d="M1.57865 3.22972H2.64712C2.74566 3.22972 2.82995 3.17036 2.86556 3.08488L3.22409 2.24791C3.23478 2.22061 3.24071 2.19212 3.24071 2.16125V1.92381C3.24071 1.79322 3.13386 1.68638 3.00327 1.68638H2.25416L2.36694 1.14383L2.37051 1.10584C2.37051 1.05717 2.35032 1.01205 2.31827 0.980001L2.19243 0.855347L1.41007 1.6377C1.36733 1.68044 1.34122 1.7398 1.34122 1.80509V2.99228C1.34122 3.12287 1.44806 3.22972 1.57865 3.22972ZM1.57865 1.80509L2.09389 1.28986L1.93481 1.92381H3.00327V2.16125L2.64712 2.99228H1.57865V1.80509ZM0.628906 1.80509H1.10378V3.22972H0.628906V1.80509Z" fill="#858786"/>
</g>
<defs>
<clipPath id="clip0_1_7452">
<rect width="2.84924" height="2.84924" fill="white" transform="translate(0.509766 0.73645)"/>
</clipPath>
</defs>
</svg>
